<?xml version="1.0" standalone="no"?>
<!DOCTYPE svg PUBLIC "-//W3C//DTD SVG 20010904//EN"
 "http://www.w3.org/TR/2001/REC-SVG-20010904/DTD/svg10.dtd">
<svg version="1.0" xmlns="http://www.w3.org/2000/svg"
 width="512.000000pt" height="512.000000pt" viewBox="0 0 512.000000 512.000000"
 preserveAspectRatio="xMidYMid meet">

<g transform="translate(0.000000,512.000000) scale(0.100000,-0.100000)"
fill="#000000" stroke="none">
<path d="M3510 4162 c0 -5 9 -35 20 -68 122 -353 125 -795 9 -1194 -127 -433
-371 -804 -716 -1085 -109 -88 -289 -204 -352 -226 -17 -6 -31 -14 -31 -18 0
-3 184 -190 408 -414 l409 -409 64 20 c401 126 777 393 1053 748 283 365 441
835 423 1258 -18 415 -158 741 -435 1010 -183 178 -461 321 -722 370 -92 18
-130 20 -130 8z"/>
<path d="M458 3797 c-15 -39 -35 -97 -44 -128 -17 -56 -17 -57 5 -88 28 -39
121 -110 186 -143 121 -61 255 -80 386 -53 107 21 131 34 64 35 -221 2 -463
176 -541 388 -10 26 -20 50 -23 54 -4 4 -19 -25 -33 -65z"/>
</g>
</svg>
